<?xml version="1.0" encoding="utf-8"?>
<!-- Generator: Adobe Illustrator 25.2.3, SVG Export Plug-In . SVG Version: 6.00 Build 0)  -->
<svg version="1.1" id="Layer_1" xmlns="http://www.w3.org/2000/svg" xmlns:xlink="http://www.w3.org/1999/xlink" x="0px" y="0px"
	 viewBox="0 0 1664 439.4" style="enable-background:new 0 0 1664 439.4;" xml:space="preserve">
<style type="text/css">
	.st0{fill:#FFFFFF;}
</style>
<g id="XMLID_504_">
	<g id="XMLID_633_">
		<path id="XMLID_634_" class="st0" d="M47.3,91.4v105.3c0,11,1.7,21.2,5,30.5c3.3,9.3,8.1,17.3,14.4,24.2
			c6.2,6.8,13.7,12.1,22.4,15.9c8.7,3.8,18.3,5.7,28.7,5.7c9.6,0,18.6-2,27.2-6.1c8.5-4.1,16-9.6,22.2-16.8
			c6.2-7.1,11.2-15.7,15-25.7c3.8-10,5.7-21.1,5.7-33.3V91.4h36.6v213.2h-36.6v-50.9c-8.1,15.7-19,28.2-32.6,37.6
			c-13.6,9.4-29.6,14.1-47.9,14.1c-13.6,0-26.3-2.5-38.1-7.4c-11.7-4.9-22-11.9-30.7-20.9c-8.7-9-15.5-19.7-20.4-32
			c-4.9-12.3-7.4-25.9-7.4-40.7V91.4H47.3z"/>
		<path id="XMLID_636_" class="st0" d="M418.5,304.6h-148V13h38.3v253.3h109.7V304.6z"/>
		<path id="XMLID_638_" class="st0" d="M453.7,27.8c0-6.7,2.3-12.2,7-16.8c4.6-4.5,10-6.8,16.1-6.8c6.7,0,12.2,2.2,16.8,6.8
			c4.5,4.5,6.8,10.1,6.8,16.8c0,6.1-2.2,11.5-6.8,16.1s-10.1,7-16.8,7c-6.1,0-11.5-2.3-16.1-7C456,39.3,453.7,33.9,453.7,27.8z
			 M495.5,91.4v213.2h-36.6V91.4H495.5z"/>
		<path id="XMLID_641_" class="st0" d="M717,167.1c-7.8-11.9-17-21.3-27.4-28.3s-22.9-10.4-37.4-10.4c-9.6,0-18.7,1.8-27.4,5.4
			c-8.7,3.6-16.2,8.6-22.6,15c-6.4,6.4-11.5,13.9-15.2,22.4c-3.8,8.6-5.7,17.6-5.7,27.2s1.9,18.7,5.7,27.2c3.8,8.6,8.8,16,15.2,22.4
			c6.4,6.4,13.9,11.4,22.6,15c8.7,3.6,17.8,5.4,27.4,5.4c13.3,0,25.6-3.4,36.8-10.2c11.2-6.8,20.5-16.5,28.1-28.9l26.5,25.7
			c-10.2,16.8-23.4,29.5-39.6,37.9c-16.2,8.4-33.5,12.6-51.8,12.6c-15.1,0-29.2-2.8-42.2-8.5c-13.1-5.7-24.4-13.3-34-22.8
			c-9.6-9.6-17.1-20.9-22.6-34s-8.3-27-8.3-41.8c0-15.1,2.8-29.2,8.3-42.2c5.5-13.1,13.1-24.4,22.6-34c9.6-9.6,20.9-17.1,34-22.6
			s27.1-8.3,42.2-8.3c18.3,0,35.3,4.1,51.1,12.2c15.8,8.1,29.2,20.5,40.3,37L717,167.1z"/>
		<path id="XMLID_643_" class="st0" d="M975.1,254.6c-11.9,17.7-25.9,30.6-42,38.7c-16.1,8.1-33.6,12.2-52.4,12.2
			c-14.8,0-28.7-2.8-41.8-8.5s-24.4-13.3-34-22.8c-9.6-9.6-17.2-20.9-22.8-34s-8.5-27-8.5-41.8c0-15.1,2.8-29.2,8.5-42.2
			c5.7-13.1,13.3-24.4,22.8-34.2c9.6-9.7,20.9-17.4,34-23.1s27-8.5,41.8-8.5c18.9,0,36.6,4.4,53.3,13.1
			c16.7,8.7,31.1,22.2,43.3,40.5L851,261.5c4.6,3.2,10.4,5.4,17.4,6.8c7,1.3,13.9,1.5,20.9,0.7c12.2-1.5,23.6-5.6,34.2-12.4
			c10.6-6.8,19.5-15.5,26.8-25.9L975.1,254.6z M808.4,192.8c-0.9,11,0.6,21.2,4.3,30.5c3.8,9.3,9.1,16.5,16.1,21.8l99.7-97
			c-5.5-6.7-12.9-12.1-22.2-16.3c-9.3-4.2-19.4-6-30.5-5.4c-9,0.6-17.4,2.6-25.2,6.1s-14.7,8.2-20.7,14.1c-6,6-10.8,12.8-14.6,20.7
			C811.6,174.9,809.3,183.5,808.4,192.8z"/>
		<path id="XMLID_646_" class="st0" d="M1193.1,304.6V198.4c0-9.6-1.8-18.7-5.4-27.4c-3.6-8.7-8.6-16.3-15-22.9
			c-6.4-6.5-13.9-11.7-22.4-15.5c-8.6-3.8-17.6-5.7-27.2-5.7s-18.6,1.8-27,5.4c-8.4,3.6-15.8,8.6-22.2,15
			c-6.4,6.4-11.5,14.1-15.2,23.1c-3.8,9-5.8,18.9-6.1,29.6v104.4H1016V91.4h36.6v44.8c8.7-14.8,20-26.1,33.9-34
			c13.9-7.8,29.3-11.8,46.1-11.8c13.6,0,26.3,2.6,38.1,7.8s22,12.4,30.7,21.5c8.7,9.1,15.6,20,20.7,32.6c5.1,12.6,7.6,26.5,7.6,41.6
			v110.5H1193.1z"/>
		<path id="XMLID_648_" class="st0" d="M1370.7,152.7c0-9-2.8-16.6-8.3-22.9c-5.5-6.2-12.2-9.4-20-9.4c-7.6,0-14.1,3.1-19.6,9.4
			c-5.5,6.2-8.3,13.6-8.3,22c0,7.8,3.3,14.3,10,19.4c6.7,5.1,17.1,9.7,31.3,13.7c16.2,4.6,28.3,11.2,36.3,19.8
			c8,8.6,12,21.3,12,38.1c0,8.7-1.6,16.8-4.8,24.4c-3.2,7.5-7.6,14.1-13.3,19.8c-5.7,5.7-12.3,10.2-19.8,13.5
			c-7.6,3.3-15.8,5-24.8,5c-8.7,0-16.8-1.5-24.4-4.6c-7.6-3-14.1-7.2-19.8-12.6s-10.2-11.8-13.5-19.4c-3.3-7.5-5-15.8-5-24.8h36.6
			c0,8.7,2.8,16,8.5,21.8c5.7,5.8,12.2,8.7,19.8,8.7c7.5,0,14.1-2.8,19.6-8.5s8.3-12.8,8.3-21.5c0-5.5-1.1-10-3.3-13.5
			c-2.2-3.5-5.1-6.4-8.7-8.7c-3.6-2.3-8-4.3-13.1-6.1c-5.1-1.7-10.7-3.5-16.8-5.2c-14.5-4.1-26.6-10.7-36.3-19.8
			s-14.6-21.8-14.6-38.1c0-9,1.5-17.3,4.6-24.8c3.1-7.5,7.4-14.1,13.1-19.8c5.7-5.7,12.2-10.1,19.8-13.3c7.5-3.2,15.9-4.8,25.2-4.8
			c18.9,0,34,5.6,45.5,16.8c11.5,11.2,17.2,26.3,17.2,45.5L1370.7,152.7L1370.7,152.7z"/>
		<path id="XMLID_650_" class="st0" d="M1650.5,254.6c-11.9,17.7-25.9,30.6-42,38.7c-16.1,8.1-33.6,12.2-52.4,12.2
			c-14.8,0-28.7-2.8-41.8-8.5s-24.4-13.3-33.9-22.8c-9.6-9.6-17.2-20.9-22.8-34s-8.5-27-8.5-41.8c0-15.1,2.8-29.2,8.5-42.2
			c5.7-13.1,13.3-24.4,22.8-34.2c9.6-9.7,20.9-17.4,33.9-23.1c13.1-5.7,27-8.5,41.8-8.5c18.9,0,36.6,4.4,53.3,13.1
			c16.7,8.7,31.1,22.2,43.3,40.5l-126.2,117.5c4.6,3.2,10.4,5.4,17.4,6.8c7,1.3,13.9,1.5,20.9,0.7c12.2-1.5,23.6-5.6,34.2-12.4
			c10.6-6.8,19.5-15.5,26.8-25.9L1650.5,254.6z M1483.8,192.8c-0.9,11,0.6,21.2,4.3,30.5c3.8,9.3,9.1,16.5,16.1,21.8l99.7-97
			c-5.5-6.7-12.9-12.1-22.2-16.3c-9.3-4.2-19.4-6-30.5-5.4c-9,0.6-17.4,2.6-25.2,6.1s-14.7,8.2-20.7,14.1
			c-5.9,6-10.8,12.8-14.6,20.7C1487,174.9,1484.7,183.5,1483.8,192.8z"/>
	</g>
	<g id="XMLID_489_">
		<path id="XMLID_591_" class="st0" d="M28.9,413.5v-67.5h8.9v59.5H71v8H28.9z"/>
		<path id="XMLID_593_" class="st0" d="M120.5,355.6v-9.5h8.3v9.5H120.5z M120.5,413.5v-48.9h8.3v48.9H120.5z"/>
		<path id="XMLID_596_" class="st0" d="M213.1,395.6l8.1,1.1c-0.9,5.6-3.2,10-6.8,13.2c-3.7,3.2-8.2,4.8-13.5,4.8
			c-6.7,0-12.1-2.2-16.1-6.6s-6.1-10.6-6.1-18.8c0-5.3,0.9-9.9,2.6-13.8c1.8-4,4.4-6.9,8-8.9c3.6-2,7.5-3,11.7-3c5.3,0,9.6,1.3,13,4
			c3.4,2.7,5.5,6.5,6.5,11.4l-8,1.2c-0.8-3.3-2.1-5.8-4.1-7.4s-4.3-2.5-7.1-2.5c-4.2,0-7.6,1.5-10.2,4.5c-2.6,3-3.9,7.7-3.9,14.2
			c0,6.6,1.3,11.3,3.8,14.3c2.5,3,5.8,4.5,9.9,4.5c3.2,0,6-1,8.1-3C211.2,402.8,212.5,399.8,213.1,395.6z"/>
		<path id="XMLID_598_" class="st0" d="M301.7,397.8l8.6,1.1c-1.4,5-3.9,8.9-7.5,11.6s-8.3,4.1-14,4.1c-7.1,0-12.8-2.2-17-6.6
			c-4.2-4.4-6.3-10.6-6.3-18.5c0-8.2,2.1-14.6,6.4-19.1c4.2-4.5,9.7-6.8,16.5-6.8c6.5,0,11.9,2.2,16,6.7s6.2,10.7,6.2,18.8
			c0,0.5,0,1.2,0,2.2H274c0.3,5.4,1.8,9.5,4.6,12.3c2.7,2.8,6.1,4.3,10.2,4.3c3,0,5.6-0.8,7.8-2.4
			C298.7,403.8,300.4,401.3,301.7,397.8z M274.5,384.4h27.3c-0.4-4.1-1.4-7.2-3.1-9.2c-2.6-3.2-6.1-4.8-10.3-4.8
			c-3.8,0-7,1.3-9.6,3.8C276.2,376.7,274.8,380.1,274.5,384.4z"/>
		<path id="XMLID_601_" class="st0" d="M360.5,413.5v-48.9h7.5v7c3.6-5.4,8.8-8,15.6-8c3,0,5.7,0.5,8.1,1.6s4.3,2.5,5.5,4.2
			c1.2,1.7,2.1,3.8,2.6,6.1c0.3,1.5,0.5,4.2,0.5,8v30h-8.3v-29.7c0-3.4-0.3-5.9-1-7.6c-0.6-1.7-1.8-3-3.4-4c-1.6-1-3.6-1.5-5.8-1.5
			c-3.5,0-6.6,1.1-9.1,3.4s-3.8,6.5-3.8,12.8v26.7L360.5,413.5L360.5,413.5z"/>
		<path id="XMLID_603_" class="st0" d="M449.5,399l8.2-1.3c0.5,3.3,1.7,5.8,3.8,7.5c2.1,1.8,5,2.6,8.8,2.6c3.8,0,6.6-0.8,8.5-2.3
			c1.8-1.5,2.8-3.4,2.8-5.5c0-1.9-0.8-3.3-2.4-4.4c-1.1-0.7-4-1.7-8.5-2.8c-6.1-1.5-10.3-2.9-12.6-4s-4.1-2.7-5.3-4.7
			c-1.2-2-1.8-4.2-1.8-6.6c0-2.2,0.5-4.2,1.5-6s2.3-3.4,4.1-4.6c1.3-1,3-1.8,5.3-2.4c2.2-0.7,4.6-1,7.2-1c3.8,0,7.2,0.5,10.1,1.7
			c2.9,1.1,5,2.6,6.4,4.5s2.3,4.4,2.8,7.6l-8.1,1.1c-0.4-2.5-1.4-4.5-3.2-5.9c-1.8-1.4-4.3-2.1-7.5-2.1c-3.8,0-6.5,0.6-8.1,1.9
			c-1.6,1.3-2.4,2.7-2.4,4.4c0,1.1,0.3,2,1,2.9c0.7,0.9,1.7,1.6,3.2,2.2c0.8,0.3,3.3,1,7.3,2.1c5.9,1.6,10,2.8,12.3,3.8
			c2.3,1,4.1,2.5,5.5,4.3c1.3,1.9,2,4.3,2,7.1c0,2.8-0.8,5.4-2.4,7.8s-3.9,4.3-7,5.7c-3,1.3-6.5,2-10.3,2c-6.3,0-11.2-1.3-14.5-4
			C452.5,408,450.4,404.1,449.5,399z"/>
		<path id="XMLID_605_" class="st0" d="M539.8,355.6v-9.5h8.3v9.5H539.8z M539.8,413.5v-48.9h8.3v48.9H539.8z"/>
		<path id="XMLID_608_" class="st0" d="M600.6,413.5v-48.9h7.5v7c3.6-5.4,8.8-8,15.5-8c3,0,5.7,0.5,8.1,1.6s4.3,2.5,5.5,4.2
			c1.2,1.7,2.1,3.8,2.6,6.1c0.3,1.5,0.5,4.2,0.5,8v30H632v-29.7c0-3.4-0.3-5.9-1-7.6c-0.6-1.7-1.8-3-3.4-4c-1.6-1-3.6-1.5-5.8-1.5
			c-3.5,0-6.6,1.1-9.1,3.4s-3.8,6.5-3.8,12.8v26.7L600.6,413.5L600.6,413.5z"/>
		<path id="XMLID_610_" class="st0" d="M691.3,417.6l8,1.2c0.3,2.5,1.3,4.3,2.8,5.4c2,1.5,4.9,2.3,8.4,2.3c3.8,0,6.8-0.8,8.9-2.3
			c2.1-1.5,3.5-3.7,4.2-6.4c0.4-1.7,0.6-5.2,0.6-10.6c-3.6,4.3-8.1,6.4-13.5,6.4c-6.7,0-11.9-2.4-15.6-7.3
			c-3.7-4.8-5.5-10.7-5.5-17.4c0-4.7,0.8-9,2.5-12.9c1.7-3.9,4.1-7,7.3-9.1c3.2-2.2,7-3.2,11.3-3.2c5.8,0,10.5,2.3,14.3,7v-5.9h7.6
			v42.2c0,7.6-0.8,13-2.3,16.2c-1.5,3.2-4,5.7-7.4,7.5s-7.5,2.8-12.4,2.8c-5.8,0-10.5-1.3-14.1-3.9
			C692.9,426.8,691.2,422.9,691.3,417.6z M698.2,388.2c0,6.4,1.3,11.1,3.8,14c2.5,3,5.7,4.4,9.6,4.4c3.8,0,7-1.5,9.6-4.4
			s3.9-7.5,3.9-13.8c0-6-1.3-10.5-4-13.5c-2.7-3-5.8-4.6-9.6-4.6c-3.7,0-6.8,1.5-9.4,4.5C699.5,377.9,698.2,382.3,698.2,388.2z"/>
		<path id="XMLID_613_" class="st0" d="M851.9,413.5v-67.5h13.4l16,47.8c1.5,4.5,2.5,7.8,3.2,10c0.8-2.5,2-6.1,3.6-10.8l16.2-46.9
			h12v67.5h-8.6v-56.5l-19.6,56.5h-8l-19.5-57.4v57.4L851.9,413.5L851.9,413.5z"/>
		<path id="XMLID_615_" class="st0" d="M1001.4,407.5c-3.1,2.6-6,4.5-8.9,5.5s-5.9,1.6-9.1,1.6c-5.4,0-9.5-1.3-12.4-3.9
			c-2.9-2.6-4.3-6-4.3-10c0-2.4,0.5-4.6,1.6-6.6s2.5-3.6,4.3-4.8c1.8-1.2,3.8-2.1,6-2.7c1.6-0.4,4.1-0.8,7.4-1.2
			c6.7-0.8,11.6-1.8,14.8-2.8c0-1.1,0.1-1.9,0.1-2.2c0-3.4-0.8-5.8-2.3-7.1c-2.1-1.9-5.3-2.8-9.4-2.8c-3.9,0-6.8,0.7-8.6,2
			s-3.2,3.8-4.1,7.2l-8.1-1.1c0.7-3.5,1.9-6.3,3.6-8.4c1.7-2.1,4.1-3.8,7.3-4.9c3.2-1.2,6.9-1.7,11.1-1.7c4.2,0,7.6,0.5,10.2,1.5
			s4.5,2.2,5.8,3.7c1.2,1.5,2.1,3.4,2.6,5.6c0.3,1.4,0.4,4,0.4,7.6v11c0,7.7,0.2,12.6,0.5,14.6s1.1,4,2.1,5.9h-8.7
			C1002.2,411.8,1001.6,409.8,1001.4,407.5z M1000.7,389c-3,1.2-7.5,2.3-13.5,3.1c-3.4,0.5-5.8,1-7.2,1.7c-1.4,0.6-2.5,1.5-3.3,2.7
			s-1.2,2.5-1.2,3.9c0,2.2,0.8,4,2.5,5.5c1.7,1.5,4.1,2.2,7.3,2.2c3.2,0,6-0.7,8.5-2.1c2.5-1.4,4.3-3.3,5.5-5.7
			c0.9-1.9,1.3-4.6,1.3-8.3L1000.7,389L1000.7,389z"/>
		<path id="XMLID_618_" class="st0" d="M1093.5,413.5v-6.2c-3.1,4.8-7.7,7.3-13.7,7.3c-3.9,0-7.5-1.1-10.7-3.2
			c-3.3-2.2-5.8-5.2-7.6-9c-1.8-3.8-2.7-8.3-2.7-13.3c0-4.9,0.8-9.3,2.4-13.3c1.6-4,4.1-7,7.3-9.1c3.2-2.1,6.9-3.2,10.9-3.2
			c2.9,0,5.6,0.6,7.9,1.9s4.2,2.9,5.6,4.8v-24.2h8.2v67.5L1093.5,413.5L1093.5,413.5z M1067.3,389.2c0,6.3,1.3,10.9,4,14
			c2.6,3.1,5.8,4.7,9.3,4.7c3.6,0,6.7-1.5,9.2-4.4s3.8-7.5,3.8-13.5c0-6.7-1.3-11.6-3.9-14.7c-2.6-3.1-5.8-4.7-9.5-4.7
			c-3.7,0-6.8,1.5-9.2,4.5C1068.5,377.9,1067.3,382.7,1067.3,389.2z"/>
		<path id="XMLID_621_" class="st0" d="M1187.5,397.8l8.6,1.1c-1.3,5-3.8,8.9-7.5,11.6s-8.3,4.1-14,4.1c-7.2,0-12.8-2.2-17-6.6
			c-4.2-4.4-6.3-10.6-6.3-18.5c0-8.2,2.1-14.6,6.3-19.1c4.2-4.5,9.7-6.8,16.5-6.8c6.5,0,11.9,2.2,16,6.7s6.2,10.7,6.2,18.8
			c0,0.5,0,1.2-0.1,2.2h-36.4c0.3,5.4,1.8,9.5,4.6,12.3c2.7,2.8,6.1,4.3,10.2,4.3c3,0,5.6-0.8,7.8-2.4
			C1184.5,403.8,1186.2,401.3,1187.5,397.8z M1160.3,384.4h27.3c-0.4-4.1-1.4-7.2-3.1-9.2c-2.6-3.2-6.1-4.8-10.3-4.8
			c-3.8,0-7,1.3-9.6,3.8C1162,376.7,1160.6,380.1,1160.3,384.4z"/>
		<path id="XMLID_624_" class="st0" d="M1313.6,413.5v-67.5h48.8v8h-39.8v20.7h37.3v7.9h-37.3v23h41.4v8L1313.6,413.5L1313.6,413.5z
			"/>
		<path id="XMLID_626_" class="st0" d="M1447,407.5c-3.1,2.6-6,4.5-8.9,5.5s-5.9,1.6-9.1,1.6c-5.4,0-9.5-1.3-12.4-3.9
			c-2.9-2.6-4.3-6-4.3-10c0-2.4,0.5-4.6,1.6-6.6s2.5-3.6,4.3-4.8c1.8-1.2,3.8-2.1,6-2.7c1.6-0.4,4.1-0.8,7.4-1.2
			c6.7-0.8,11.6-1.8,14.8-2.8c0-1.1,0.1-1.9,0.1-2.2c0-3.4-0.8-5.8-2.3-7.1c-2.1-1.9-5.3-2.8-9.4-2.8c-3.9,0-6.8,0.7-8.6,2
			s-3.2,3.8-4.1,7.2l-8.1-1.1c0.7-3.5,1.9-6.3,3.6-8.4c1.7-2.1,4.1-3.8,7.3-4.9c3.2-1.2,6.9-1.7,11.1-1.7c4.2,0,7.6,0.5,10.2,1.5
			s4.5,2.2,5.8,3.7c1.2,1.5,2.1,3.4,2.6,5.6c0.3,1.4,0.4,4,0.4,7.6v11c0,7.7,0.2,12.6,0.5,14.6s1.1,4,2.1,5.9h-8.7
			C1447.8,411.8,1447.2,409.8,1447,407.5z M1446.3,389c-3,1.2-7.5,2.3-13.5,3.1c-3.4,0.5-5.8,1-7.2,1.7c-1.4,0.6-2.5,1.5-3.3,2.7
			s-1.2,2.5-1.2,3.9c0,2.2,0.8,4,2.5,5.5c1.7,1.5,4.1,2.2,7.3,2.2c3.2,0,6-0.7,8.5-2.1c2.5-1.4,4.3-3.3,5.5-5.7
			c0.9-1.9,1.3-4.6,1.3-8.3L1446.3,389L1446.3,389z"/>
		<path id="XMLID_629_" class="st0" d="M1504.1,399l8.2-1.3c0.5,3.3,1.7,5.8,3.8,7.5s5,2.6,8.8,2.6c3.8,0,6.6-0.8,8.5-2.3
			s2.8-3.4,2.8-5.5c0-1.9-0.8-3.3-2.4-4.4c-1.1-0.7-4-1.7-8.5-2.8c-6.1-1.5-10.3-2.9-12.6-4s-4.1-2.7-5.3-4.7
			c-1.2-2-1.8-4.2-1.8-6.6c0-2.2,0.5-4.2,1.5-6s2.3-3.4,4.1-4.6c1.3-1,3-1.8,5.3-2.4c2.2-0.7,4.6-1,7.2-1c3.8,0,7.2,0.5,10.1,1.7
			c2.9,1.1,5,2.6,6.4,4.5s2.3,4.4,2.8,7.6l-8.1,1.1c-0.4-2.5-1.4-4.5-3.2-5.9c-1.8-1.4-4.3-2.1-7.5-2.1c-3.8,0-6.5,0.6-8.1,1.9
			c-1.6,1.3-2.4,2.7-2.4,4.4c0,1.1,0.3,2,1,2.9c0.7,0.9,1.7,1.6,3.2,2.2c0.8,0.3,3.3,1,7.3,2.1c5.9,1.6,9.9,2.8,12.3,3.8
			c2.3,1,4.1,2.5,5.4,4.3c1.3,1.9,2,4.3,2,7.1c0,2.8-0.8,5.4-2.4,7.8s-3.9,4.3-7,5.7s-6.5,2-10.3,2c-6.3,0-11.2-1.3-14.5-4
			C1507.1,408,1505,404.1,1504.1,399z"/>
		<path id="XMLID_631_" class="st0" d="M1594,432.4l-0.9-7.8c1.8,0.5,3.4,0.7,4.7,0.7c1.8,0,3.3-0.3,4.4-0.9c1.1-0.6,2-1.5,2.7-2.6
			c0.5-0.8,1.4-2.9,2.5-6.2c0.2-0.5,0.4-1.1,0.7-2l-18.5-49h8.9l10.2,28.3c1.3,3.6,2.5,7.4,3.5,11.3c0.9-3.8,2.1-7.5,3.4-11.1
			l10.4-28.5h8.3l-18.6,49.7c-2,5.4-3.5,9.1-4.7,11.1c-1.5,2.7-3.2,4.7-5.1,6c-1.9,1.3-4.2,1.9-6.8,1.9
			C1597.7,433.4,1595.9,433,1594,432.4z"/>
	</g>
</g>
</svg>
